<svg xmlns="http://www.w3.org/2000/svg" width="1200" height="220" viewBox="0 0 1200 220" role="img" aria-labelledby="title description">
  <title id="title">Recent public contribution build signal</title>
  <desc id="description">A twelve-week telemetry chart of public GitHub contributions, last synchronized 2026-09-01.</desc>
  <defs>
    <linearGradient id="signalFill" x1="0" x2="0" y1="0" y2="1">
      <stop offset="0" stop-color="#ff5c5c" />
      <stop offset="1" stop-color="#9e2020" />
    </linearGradient>
  </defs>
  <rect width="1200" height="220" rx="8" fill="#0d1117" stroke="#30363d" />
  <g stroke="#30363d" stroke-width="1">
    <path d="M72 110H1012" opacity="0.38" />
    <path d="M72 142H1012" opacity="0.58" />
    <path d="M72 174H1128" />
  </g>
  <text x="72" y="42" fill="#f0f6fc" font-family="ui-monospace, SFMono-Regular, Menlo, Consolas, monospace" font-size="17" font-weight="700">BUILD SIGNAL / TELEMETRY</text>
  <text x="72" y="66" fill="#8b949e" font-family="ui-monospace, SFMono-Regular, Menlo, Consolas, monospace" font-size="11">12 WEEK ACTIVITY  //  PUBLIC CONTRIBUTIONS</text>
  <text x="72" y="198" fill="#6e7681" font-family="ui-monospace, SFMono-Regular, Menlo, Consolas, monospace" font-size="10">LAST SYNC UTC: 2026-09-01</text>
  <g fill="url(#signalFill)" opacity="0.88"><rect class="bar" x="72.0" y="174.0" width="63.7" height="0.0" rx="2" /><rect class="bar" x="151.7" y="174.0" width="63.7" height="0.0" rx="2" /><rect class="bar" x="231.3" y="174.0" width="63.7" height="0.0" rx="2" /><rect class="bar" x="311.0" y="174.0" width="63.7" height="0.0" rx="2" /><rect class="bar" x="390.7" y="174.0" width="63.7" height="0.0" rx="2" /><rect class="bar" x="470.3" y="108.2" width="63.7" height="65.8" rx="2" /><rect class="bar" x="550.0" y="174.0" width="63.7" height="0.0" rx="2" /><rect class="bar" x="629.7" y="78.0" width="63.7" height="96.0" rx="2" /><rect class="bar" x="709.3" y="132.9" width="63.7" height="41.1" rx="2" /><rect class="bar" x="789.0" y="152.1" width="63.7" height="21.9" rx="2" /><rect class="bar" x="868.7" y="160.3" width="63.7" height="13.7" rx="2" /><rect class="bar" x="948.3" y="160.3" width="63.7" height="13.7" rx="2" /></g>
  <polyline class="signal-line" points="103.8,174.0 183.5,174.0 263.2,174.0 342.8,174.0 422.5,174.0 502.2,108.2 581.8,174.0 661.5,78.0 741.2,132.9 820.8,152.1 900.5,160.3 980.2,160.3" fill="none" stroke="#ff7070" stroke-width="2" stroke-linecap="round" stroke-linejoin="round" />
  <g fill="#ff8585" stroke="#0d1117" stroke-width="2"><circle class="signal-node" cx="103.8" cy="174.0" r="3.5" /><circle class="signal-node" cx="183.5" cy="174.0" r="3.5" /><circle class="signal-node" cx="263.2" cy="174.0" r="3.5" /><circle class="signal-node" cx="342.8" cy="174.0" r="3.5" /><circle class="signal-node" cx="422.5" cy="174.0" r="3.5" /><circle class="signal-node" cx="502.2" cy="108.2" r="3.5" /><circle class="signal-node" cx="581.8" cy="174.0" r="3.5" /><circle class="signal-node" cx="661.5" cy="78.0" r="3.5" /><circle class="signal-node" cx="741.2" cy="132.9" r="3.5" /><circle class="signal-node" cx="820.8" cy="152.1" r="3.5" /><circle class="signal-node" cx="900.5" cy="160.3" r="3.5" /><circle class="signal-node" cx="980.2" cy="160.3" r="3.5" /></g>
  <g class="circuit-signature" fill="none" stroke="#ff4d4d" stroke-opacity="0.4" stroke-width="1.2" stroke-linecap="square">
    <path d="M1062 62H1100V82H1128" />
    <path d="M1062 104H1090V84H1128" />
    <path d="M1108 54V116" />
    <path d="M1078 85H1138" />
    <circle cx="1108" cy="54" r="2" fill="#ff4d4d" />
    <circle cx="1138" cy="85" r="2" fill="#ff4d4d" />
    <circle cx="1108" cy="116" r="2" fill="#ff4d4d" />
  </g>
</svg>